<?xml version="1.0" encoding="UTF-8"?>
<svg id="Layer_2" data-name="Layer 2" xmlns="http://www.w3.org/2000/svg" viewBox="0 0 132.39 132.39">
  <defs>
    <style>
      .cls-1 {
        fill: #fff;
      }

      .cls-2 {
        fill: #2188ca;
      }
    </style>
  </defs>
  <g id="Layer_2-2" data-name="Layer 2">
    <circle class="cls-1" cx="66.19" cy="66.19" r="66.19"/>
    <g>
      <path d="M74.32,77.52v6.98c0,4.41-2.4,6.62-7.2,6.62-1.5,0-2.71,1.21-2.71,2.71v.84h19.5c1.65,0,3-1.34,3-2.99v-1.57s-12.59-12.59-12.59-12.59Z"/>
      <path d="M66.25,71.43c.36-.34.81-.56,1.29-.68l-4.76-4.76c-1.63-.4-3.04-.95-4.19-1.65-3.47-2.07-5.2-5.61-5.2-10.62,0-8.74,5.39-13.11,16.17-13.11h1.75c1.66,0,3,1.34,3,3v10.73l12.7-12.7v-1.3c0-1.6-1.24-2.91-2.83-3-4.27-.23-12.11-.64-14.8-.64-6.78,0-12.1.47-15.95,1.42-3.85.95-6.93,2.58-9.24,4.89-2.9,2.9-4.35,6.35-4.35,10.35,0,7.35,4.49,12.23,13.46,14.66-2.1,1.72-4.55,4.49-7.33,8.31-1.75,2.4-4.52,5.85-8.31,10.35-1.81,1.84-3.63,3.14-5.46,3.91-1.08.45-2.45.82-4.12,1.11-1.42.25-2.46,1.5-2.46,2.95v.92c1.33.09,3.21.13,5.64.13,7.08,0,12.22-.81,15.42-2.44,1.69-.83,3.29-2,4.8-3.51,1.66-1.66,3.54-3.94,5.64-6.84l5.24-7.24c1.12-1.44,2.42-2.85,3.89-4.23Z"/>
    </g>
    <polygon class="cls-2" points="99.77 100.14 65.55 65.93 99.24 32.24 106.77 39.77 80.61 65.93 106.55 91.86 99.77 100.14"/>
  </g>
</svg>