<?xml version="1.0" encoding="UTF-8"?><svg id="Layer_1" xmlns="http://www.w3.org/2000/svg" viewBox="0 0 100.8 73.91"><g id="Layer_1-2"><path d="M50.39,0C22.56,0,0,22.37,0,49.98v23.93h9.29v-2.38c0-11.2,9.15-20.27,20.44-20.27s20.44,9.08,20.44,20.27v2.38h9.29v-2.38c0-16.28-13.31-29.48-29.73-29.48-6.39,0-12.31,2-17.16,5.41,5.08-10,15.52-16.87,27.58-16.87,17.04,0,30.86,13.71,30.86,30.6v12.72h9.29v-12.72c0-21.99-17.98-39.82-40.15-39.82-9.97,0-19.09,3.6-26.11,9.57,6.89-12.93,20.59-21.73,36.36-21.73,22.71,0,41.11,18.25,41.11,40.77v23.93h9.29v-23.93c0-27.61-22.57-49.98-50.41-49.98Z"/></g></svg>